<?xml version="1.0" standalone="no"?>
<!DOCTYPE svg PUBLIC "-//W3C//DTD SVG 20010904//EN"
 "http://www.w3.org/TR/2001/REC-SVG-20010904/DTD/svg10.dtd">
<svg version="1.0" xmlns="http://www.w3.org/2000/svg"
 width="200.000000pt" height="200.000000pt" viewBox="0 0 200.000000 200.000000"
 preserveAspectRatio="xMidYMid meet">

<g transform="translate(0.000000,200.000000) scale(0.100000,-0.100000)"
fill="#000000" stroke="none">
<path d="M0 1151 l0 -849 62 66 c130 140 203 212 213 212 6 0 37 -32 69 -70
262 -319 701 -402 1040 -197 158 94 317 303 378 492 14 41 21 102 25 190 6
153 -12 250 -73 373 -59 121 -189 264 -289 318 l-34 18 102 108 c56 60 117
127 136 148 l34 40 -832 0 -831 0 0 -849z m1122 398 c97 -20 177 -66 259 -148
86 -86 121 -151 147 -268 54 -252 -126 -526 -389 -588 -35 -8 -83 -15 -106
-15 l-43 0 0 49 0 48 70 5 c55 4 88 14 145 42 196 97 283 329 199 533 -27 64
-93 143 -155 183 -221 143 -510 60 -621 -177 -54 -114 -48 -270 13 -369 14
-23 19 -50 19 -98 0 -36 -4 -66 -9 -66 -17 0 -82 85 -111 145 -37 78 -50 133
-50 220 0 141 48 254 149 356 129 130 308 184 483 148z m154 -253 c33 -33 34
-36 33 -117 0 -83 -1 -83 -13 -44 -25 79 -64 131 -136 178 -24 17 -24 17 29
17 47 0 57 -4 87 -34z m-193 10 c55 -16 118 -64 146 -110 29 -46 27 -62 -5
-37 -39 31 -118 51 -199 51 -57 0 -82 -5 -124 -26 -131 -66 -151 -223 -40
-318 l39 -33 0 -140 c0 -77 -2 -142 -5 -145 -12 -12 -87 16 -115 42 l-30 28 0
255 0 255 28 53 c57 110 184 162 305 125z m114 -177 c45 -28 77 -91 69 -137
-19 -121 -164 -204 -268 -153 -44 21 -88 79 -88 116 0 14 3 14 26 -4 107 -84
264 31 220 161 -16 44 -8 47 41 17z m-148 -3 c9 -11 10 -20 1 -36 -13 -25 -47
-24 -63 2 -22 34 36 66 62 34z m-174 -111 c0 -58 -1 -105 -3 -105 -12 0 -42
73 -42 105 0 32 30 105 42 105 2 0 3 -47 3 -105z"/>
</g>
</svg>
