<svg height="297mm" width="210mm" xmlns="http://www.w3.org/2000/svg" xmlns:xlink="http://www.w3.org/1999/xlink"><linearGradient id="a"><stop offset="0" stop-color="#fff"/><stop offset="1" stop-color="#fff" stop-opacity="0"/></linearGradient><linearGradient id="b"><stop offset="0" stop-color="#2e3436"/><stop offset="1" stop-color="#2e3436" stop-opacity="0"/></linearGradient><radialGradient id="c" cx="379.81735" cy="785.6819" gradientTransform="matrix(1.0463835 0 0 .15128438 -22.305255 658.0682)" gradientUnits="userSpaceOnUse" r="335.37063" xlink:href="#b"/><linearGradient id="d" gradientUnits="userSpaceOnUse" x1="600.57064272978" x2="481.73138277022" xlink:href="#b" y1="691.12056743029" y2="621.61078692603"/><linearGradient id="e" gradientUnits="userSpaceOnUse" x1="572.16883327448" x2="625.23544000853" y1="678.41445815581" y2="741.19746815582"><stop offset="0" stop-color="#555753"/><stop offset="1" stop-color="#555753" stop-opacity="0"/></linearGradient><linearGradient id="f" gradientUnits="userSpaceOnUse" x1="529.69022540654" x2="592.84959862382" y1="592.67008996822" y2="670.40142073418"><stop offset="0" stop-color="#eeeeec"/><stop offset="1" stop-color="#eeeeec" stop-opacity="0"/></linearGradient><linearGradient id="g" gradientUnits="userSpaceOnUse" x1="125.38756414838" x2="378.98219446878" xlink:href="#a" y1="222.46475587504" y2="486.71650915557"/><linearGradient id="h" gradientUnits="userSpaceOnUse" x1="426.4935" x2="315.39954" xlink:href="#a" y1="488.14899" y2="673.64899"/><path d="m20 180.93361h708.57141v708.57141h-708.57141z" fill="none" opacity=".588957"/><path d="m24.203051 726.19326h701.852599v101.47267h-701.852599z" fill="url(#c)" opacity=".592025"/><path d="m108.15754 257.37966h543.85033v516.94329h-543.85033z" fill="#d3d7cf" stroke="#888a85" stroke-linejoin="round" stroke-width="21.164448"/><path d="m124.60072 255.88483 512.45882 4.4845-2.49228 495.9845-509.49761-.52851z" fill="#d3d7cf" stroke="#eeeeec" stroke-width="13.602985"/><path d="m104.14119 253.36331h551.88304v196.11261h-551.88304z" fill="#c00" stroke="#a40000" stroke-linejoin="round" stroke-width="20.92767"/><path d="m454.07696 749.04535c69.5101-25.90781 114.81718-36.91026 178.63261-108.37543-44.9694-3.33337-94.91287-36.6801-121.08151-68.76235-7.90143 62.1049-12.02809 117.01297-57.5511 177.13778z" fill="url(#d)"/><path d="m470.52013 749.79278c56.55206-27.28938 108.82972-48.2378 157.70494-102.39611l-.74742 103.14352z" fill="url(#e)" opacity=".401841"/><path d="m461.12916 754.03494c67.54252-25.05494 124.51688-47.57004 164.40558-108.3878-21.65108-3.95656-56.1275-28.21249-80.72762-49.91022-16.70569 95.11948-58.74168 132.30704-83.67796 158.29802z" fill="url(#f)" stroke="#eeeeec" stroke-width="13.856012"/><path d="m122.76899 273.67566 513.04192-.5285v156.5449l-512.51341.00001z" fill="url(#g)" opacity=".528405" stroke="#eeeeec" stroke-width="19.074017"/><text x="372.85715" y="570.93365"><tspan x="372.85715" y="570.93365"/></text><path d="m432.85713 669.50505c-6.73552 4.55359-62.51712-39.97211-70.64281-40.24722-8.12569-.2751-66.79107 40.37583-73.20318 35.3771-6.41212-4.99872 18.69688-71.80938 16.44754-79.62238-2.24933-7.813-59.03926-51.04526-56.26665-58.68824 2.77262-7.64297 74.07244-4.40853 80.80796-8.96212s30.3028-71.92353 38.42848-71.64843c8.12569.27511 27.08241 69.08477 33.49452 74.08349 6.41212 4.99872 77.76742 6.59408 80.01676 14.40707 2.24933 7.813-57.33459 47.10527-60.10721 54.74824-2.77262 7.64298 17.76012 75.9989 11.02459 80.55249z" fill="#fe6" stroke="#d5ae00" stroke-linejoin="round" stroke-width="16.030634" transform="matrix(.88388188 -.02111146 .02111146 .88388188 41.850416 95.2553)"/><path d="m376.45997 492.00292-26.90593 61.03995-66.06054 5.71232 48.66004 43.77452-14.60998 65.85344 58.55855-34.17732 56.73935 35.08924-3.35042-15.60822-10.53253-50.09469 50.44103-43.26612-65.42973-7.6856zm.35699 26.46209 18.77115 45.20781 47.21492 3.34519-35.66538 30.65355 9.88166 47.10498-41.84288-23.52412-40.08038 23.03153 12.42548-48.03127-37.27161-30.03512 49.31303-2.80463z" fill="url(#h)"/></svg>